<?xml version="1.0" encoding="utf-8"?>
<!-- Generator: Adobe Illustrator 22.0.1, SVG Export Plug-In . SVG Version: 6.00 Build 0)  -->
<svg version="1.1" id="Capa_1" xmlns="http://www.w3.org/2000/svg" xmlns:xlink="http://www.w3.org/1999/xlink" x="0px" y="0px"
	 viewBox="0 0 64 47" style="enable-background:new 0 0 64 47;" xml:space="preserve">
<style type="text/css">
	.st0{fill:#428BC1;}
	.st1{fill:#42ADE2;}
	.st2{fill:#94989B;}
	.st3{fill:#D0D0D0;}
	.st4{fill:#FFFFFF;}
</style>
<path class="st0" d="M0,38h64v9H0V38z"/>
<path class="st1" d="M0,0h64v38H0V0z"/>
<path class="st2" d="M24,38h16v9H24V38z"/>
<path class="st0" d="M4,4h56v30H4V4z"/>
<path class="st1" d="M7,7h50v24H7V7z"/>
<circle class="st0" cx="45" cy="19" r="8"/>
<path class="st3" d="M24,0h16v38H24V0z"/>
<path class="st4" d="M19.3,25c-2.2,0-4.2-1.2-5.2-3h6.7v-2h-7.4c-0.1-0.3-0.1-0.7-0.1-1s0-0.7,0.1-1h7.4v-2h-6.7c1.1-1.8,3-3,5.2-3
	c0.4,0,0.8,0,1.2,0.1l0.5-2c-0.5-0.1-1.1-0.2-1.7-0.2c-3.4,0-6.4,2.1-7.6,5H9v2h2.2c0,0.3-0.1,0.7-0.1,1s0,0.7,0.1,1H9v2h2.7
	c1.2,2.9,4.2,5,7.6,5c0.6,0,1.1-0.1,1.7-0.2l-0.5-2C20.2,25,19.7,25,19.3,25"/>
</svg>
